REM DIRINDEX 1\2,1\3
REM DIRNAME folder01,folder02,folder03
TITLE ""
FILE "2000 phrasesTrack08.mp3" MP3
  TRACK 01 AUDIO
    TITLE "2:cjc143_0312"
    INDEX 01 00:00:00
  TRACK 02 AUDIO
    TITLE "0:"
    INDEX 01 00:00:56
  TRACK 03 AUDIO
    TITLE "2:cjc143_0313"
    INDEX 01 00:01:26
  TRACK 04 AUDIO
    TITLE "0:"
    INDEX 01 00:03:21
  TRACK 05 AUDIO
    TITLE "2:cjc143_0314"
    INDEX 01 00:03:35
  TRACK 06 AUDIO
    TITLE "0:"
    INDEX 01 00:05:14
  TRACK 07 AUDIO
    TITLE "2:cjc143_0315"
    INDEX 01 00:05:20
  TRACK 08 AUDIO
    TITLE "0:"
    INDEX 01 00:06:35
  TRACK 09 AUDIO
    TITLE "2:cjc143_0316"
    INDEX 01 00:06:57
  TRACK 10 AUDIO
    TITLE "0:"
    INDEX 01 00:08:13
  TRACK 11 AUDIO
    TITLE "2:cjc143_0317"
    INDEX 01 00:08:21
  TRACK 12 AUDIO
    TITLE "0:"
    INDEX 01 00:09:49
  TRACK 13 AUDIO
    TITLE "2:cjc143_0318"
    INDEX 01 00:09:59
  TRACK 14 AUDIO
    TITLE "0:"
    INDEX 01 00:11:25
  TRACK 15 AUDIO
    TITLE "2:cjc143_0319"
    INDEX 01 00:11:31
  TRACK 16 AUDIO
    TITLE "0:"
    INDEX 01 00:12:67
  TRACK 17 AUDIO
    TITLE "2:cjc143_0320"
    INDEX 01 00:13:02
  TRACK 18 AUDIO
    TITLE "0:"
    INDEX 01 00:14:23
  TRACK 19 AUDIO
    TITLE "2:cjc143_0321"
    INDEX 01 00:14:35
  TRACK 20 AUDIO
    TITLE "0:"
    INDEX 01 00:16:61
  TRACK 21 AUDIO
    TITLE "2:cjc143_0322"
    INDEX 01 00:16:65
  TRACK 22 AUDIO
    TITLE "0:"
    INDEX 01 00:19:09
  TRACK 23 AUDIO
    TITLE "2:cjc143_0323"
    INDEX 01 00:19:16
  TRACK 24 AUDIO
    TITLE "0:"
    INDEX 01 00:21:00
  TRACK 25 AUDIO
    TITLE "2:cjc143_0324"
    INDEX 01 00:21:27
  TRACK 26 AUDIO
    TITLE "0:"
    INDEX 01 00:22:66
  TRACK 27 AUDIO
    TITLE "2:cjc143_0325"
    INDEX 01 00:22:72
  TRACK 28 AUDIO
    TITLE "0:"
    INDEX 01 00:24:27
  TRACK 29 AUDIO
    TITLE "2:cjc143_0326"
    INDEX 01 00:24:74
  TRACK 30 AUDIO
    TITLE "0:"
    INDEX 01 00:26:24
  TRACK 31 AUDIO
    TITLE "2:cjc143_0327"
    INDEX 01 00:26:32
  TRACK 32 AUDIO
    TITLE "0:"
    INDEX 01 00:28:02
  TRACK 33 AUDIO
    TITLE "2:cjc143_0328"
    INDEX 01 00:28:12
  TRACK 34 AUDIO
    TITLE "0:"
    INDEX 01 00:30:28
  TRACK 35 AUDIO
    TITLE "2:cjc143_0329"
    INDEX 01 00:30:44
  TRACK 36 AUDIO
    TITLE "0:"
    INDEX 01 00:32:27
  TRACK 37 AUDIO
    TITLE "2:cjc143_0330"
    INDEX 01 00:32:33
  TRACK 38 AUDIO
    TITLE "0:"
    INDEX 01 00:33:58
  TRACK 39 AUDIO
    TITLE "2:cjc143_0331"
    INDEX 01 00:33:64
  TRACK 40 AUDIO
    TITLE "0:"
    INDEX 01 00:35:43
  TRACK 41 AUDIO
    TITLE "2:cjc143_0332"
    INDEX 01 00:35:64
  TRACK 42 AUDIO
    TITLE "0:"
    INDEX 01 00:37:36
  TRACK 43 AUDIO
    TITLE "2:cjc143_0333"
    INDEX 01 00:37:48
  TRACK 44 AUDIO
    TITLE "0:"
    INDEX 01 00:39:00
  TRACK 45 AUDIO
    TITLE "2:cjc143_0334"
    INDEX 01 00:39:09
  TRACK 46 AUDIO
    TITLE "0:"
    INDEX 01 00:40:30
  TRACK 47 AUDIO
    TITLE "2:cjc143_0335"
    INDEX 01 00:40:48
  TRACK 48 AUDIO
    TITLE "0:"
    INDEX 01 00:41:73
  TRACK 49 AUDIO
    TITLE "2:cjc143_0336"
    INDEX 01 00:42:04
  TRACK 50 AUDIO
    TITLE "0:"
    INDEX 01 00:43:27
  TRACK 51 AUDIO
    TITLE "2:cjc143_0337"
    INDEX 01 00:43:72
  TRACK 52 AUDIO
    TITLE "0:"
    INDEX 01 00:45:18
  TRACK 53 AUDIO
    TITLE "2:cjc143_0338"
    INDEX 01 00:45:26
  TRACK 54 AUDIO
    TITLE "0:"
    INDEX 01 00:46:58
  TRACK 55 AUDIO
    TITLE "2:cjc143_0339"
    INDEX 01 00:46:64
  TRACK 56 AUDIO
    TITLE "0:"
    INDEX 01 00:48:14
  TRACK 57 AUDIO
    TITLE "2:cjc143_0340"
    INDEX 01 00:48:22
  TRACK 58 AUDIO
    TITLE "0:"
    INDEX 01 00:49:57
  TRACK 59 AUDIO
    TITLE "2:cjc143_0341"
    INDEX 01 00:49:65
  TRACK 60 AUDIO
    TITLE "0:"
    INDEX 01 00:51:22
  TRACK 61 AUDIO
    TITLE "2:cjc143_0342"
    INDEX 01 00:51:28
  TRACK 62 AUDIO
    TITLE "0:"
    INDEX 01 00:52:67
  TRACK 63 AUDIO
    TITLE "2:cjc143_0343"
    INDEX 01 00:53:02
  TRACK 64 AUDIO
    TITLE "0:"
    INDEX 01 00:54:64
  TRACK 65 AUDIO
    TITLE "2:cjc143_0344"
    INDEX 01 00:54:70
  TRACK 66 AUDIO
    TITLE "0:"
    INDEX 01 00:56:35
  TRACK 67 AUDIO
    TITLE "2:cjc143_0345"
    INDEX 01 00:56:47
  TRACK 68 AUDIO
    TITLE "0:"
    INDEX 01 00:58:26
  TRACK 69 AUDIO
    TITLE "2:cjc143_0346"
    INDEX 01 00:58:44
  TRACK 70 AUDIO
    TITLE "0:"
    INDEX 01 01:00:00
  TRACK 71 AUDIO
    TITLE "2:cjc143_0347"
    INDEX 01 01:00:17
  TRACK 72 AUDIO
    TITLE "0:"
    INDEX 01 01:01:56
  TRACK 73 AUDIO
    TITLE "2:cjc143_0348"
    INDEX 01 01:01:68
  TRACK 74 AUDIO
    TITLE "0:"
    INDEX 01 01:03:18
  TRACK 75 AUDIO
    TITLE "2:cjc143_0349"
    INDEX 01 01:03:24
  TRACK 76 AUDIO
    TITLE "0:"
    INDEX 01 01:04:45
  TRACK 77 AUDIO
    TITLE "2:cjc143_0350"
    INDEX 01 01:04:58
  TRACK 78 AUDIO
    TITLE "0:"
    INDEX 01 01:06:16
